<?xml version="1.0" encoding="utf-8"?>
<!-- Generator: Adobe Illustrator 24.2.1, SVG Export Plug-In . SVG Version: 6.00 Build 0)  -->
<svg version="1.1" id="Calque_1" xmlns="http://www.w3.org/2000/svg" xmlns:xlink="http://www.w3.org/1999/xlink" x="0px" y="0px"
	 viewBox="0 0 59.7 62" style="enable-background:new 0 0 59.7 62;" xml:space="preserve">
<style type="text/css">
	.st0{fill:#FF0101;}
	.st1{fill:#020203;}
</style>
<path class="st0" d="M30.1,58.2C46,58.4,59,45.6,59.2,29.6c0.1-15.9-12.7-29-28.6-29.1S1.6,13.2,1.5,29.1c0,0.1,0,0.2,0,0.2
	C1.4,45.2,14.2,58.2,30.1,58.2z"/>
<path class="st1" d="M42.4,17c2.7,0,4.8-2.1,4.9-4.8c0-2.7-2.1-4.8-4.8-4.9c-2.7,0-4.8,2.1-4.9,4.8c0,0,0,0,0,0
	C37.6,14.8,39.7,16.9,42.4,17C42.4,17,42.4,17,42.4,17z"/>
<g>
	<path class="st1" d="M41,30c0.3,0.5,0.9,0.8,1.5,0.8c0.3,0,0.7-0.1,1-0.3l8.6-5.2c0.9-0.5,1.1-1.6,0.6-2.4c0,0,0,0,0,0
		c-0.5-0.8-1.6-1.1-2.4-0.7c0,0,0,0,0,0l-7.2,4.3l-3.5-6.8c-1-1-2-1.9-3.1-2.7l-10.2-5.2c-0.7-0.3-1.4-0.2-2,0.3l-8.6,7.8
		c-0.7,0.6-0.8,1.7-0.2,2.5c0,0,0,0,0.1,0.1c0.6,0.7,1.7,0.8,2.4,0.2c0,0,0.1,0,0.1-0.1l7.7-7l5.3,2.7L22,32.6l-20.9,25
		c-0.8,1-0.7,2.5,0.3,3.3c1,0.8,2.4,0.7,3.2-0.2c0,0,0,0,0,0L24.9,37l8.7,2l-6,9.5c-0.6,1.1-0.3,2.5,0.9,3.2c0,0,0,0,0,0
		c1,0.6,2.3,0.3,3-0.7l7.7-12.2c0.4-0.6,0.5-1.4,0.3-2.2c-0.3-0.7-0.9-1.2-1.6-1.3l-6.7-1.6l6.1-9.6L41,30z"/>
</g>
</svg>
